<svg width="80" height="80" viewBox="0 0 80 80" fill="none" xmlns="http://www.w3.org/2000/svg">
<g clip-path="url(#clip0_204_620)">
<path d="M36.5955 54.0003C37.2942 54.0003 37.8468 53.6989 38.2368 53.112L53.5936 29.5062C53.8862 29.0462 54 28.6972 54 28.3323C54 27.4598 53.4149 26.8887 52.5211 26.8887C51.8712 26.8887 51.5135 27.0949 51.1237 27.6977L36.5304 50.3991L28.9576 40.7221C28.5514 40.1669 28.1451 39.9448 27.5601 39.9448C26.6338 39.9448 26 40.5635 26 41.436C26 41.8009 26.1625 42.2133 26.4713 42.594L34.9054 53.0802C35.3929 53.6989 35.8967 54.0003 36.5955 54.0003Z" fill="#007BFE"/>
<path d="M80 40C80 62.0914 62.0914 80 40 80C17.9086 80 0 62.0914 0 40C0 17.9086 17.9086 0 40 0C62.0914 0 80 17.9086 80 40ZM4 40C4 59.8823 20.1177 76 40 76C59.8823 76 76 59.8823 76 40C76 20.1177 59.8823 4 40 4C20.1177 4 4 20.1177 4 40Z" fill="#007BFE"/>
</g>
<defs>
<clipPath id="clip0_204_620">
<rect width="80" height="80" fill="white"/>
</clipPath>
</defs>
</svg>
